# xmcd
#
# Track frame offsets:
#	150
#	69705
#	123699
#	190526
#
# Disc length: 3115 seconds
#
# Revision: 1
# Processed by: cddbd v1.5PL3 Copyright (c) Steve Scherf et al.
# Submitted via: audiograbber 1.83.01
#
DISCID=350c2904
DTITLE=Smìs - Country ze starého sedla2
DYEAR=2000
DGENRE=contry
TTITLE0=Smìs 1
TTITLE1=Smìs 2
TTITLE2=Smìs 3
TTITLE3=Smìs 4
EXTD=
EXTT0=
EXTT1=
EXTT2=
EXTT3=
PLAYORDER=
